# xmcd CD database file
#
# Track frame offsets:
#	150
#	26168
#	49942
#	75471
#	93821
#	119322
#	140998
#	163646
#
# Disc length: 2460 seconds
#
# Revision: 0
# Processed by: cddbd v1.5.2PL0 Copyright (c) Steve Scherf et al.
# Submitted via: CDex 1.51
#
DISCID=65099a08
DTITLE=Umberto Napolitano Trio - Eos
DYEAR=2006
DGENRE=Jazz
TTITLE0=indios
TTITLE1=solo
TTITLE2=aquiloni
TTITLE3=eos
TTITLE4=avrai
TTITLE5=t-rex
TTITLE6=peace
TTITLE7=over night
EXTD=YEAR: 2006
EXTT0=
EXTT1=
EXTT2=
EXTT3=
EXTT4=
EXTT5=
EXTT6=
EXTT7=
PLAYORDER=
